<svg xmlns="http://www.w3.org/2000/svg" width="1200" height="360" viewBox="0 0 1200 360">
  <defs>
    <linearGradient id="bg" x1="0" y1="0" x2="1" y2="1">
      <stop offset="0%" stop-color="#061018"/>
      <stop offset="50%" stop-color="#0a2a38"/>
      <stop offset="100%" stop-color="#0c4548"/>
    </linearGradient>
    <linearGradient id="t" x1="0" y1="0" x2="1" y2="1">
      <stop offset="0%" stop-color="#00e0b8"/>
      <stop offset="100%" stop-color="#00a8c2"/>
    </linearGradient>
  </defs>
  <rect width="1200" height="360" fill="url(#bg)"/>
  <circle cx="980" cy="80" r="120" fill="#00c2a8" opacity="0.08"/>
  <circle cx="150" cy="300" r="90" fill="#00a8c2" opacity="0.1"/>
  <!-- isometric cubes -->
  <g transform="translate(820,70)">
    <polygon points="100,20 175,55 100,90 25,55" fill="#1a4a55" stroke="#00c2a8" stroke-width="1.5"/>
    <polygon points="25,55 100,90 100,165 25,130" fill="#0c2a32" stroke="#00c2a8" stroke-width="1.5"/>
    <polygon points="100,90 175,55 175,130 100,165" fill="#144048" stroke="#00c2a8" stroke-width="1.5"/>
  </g>
  <g transform="translate(720,130)">
    <polygon points="70,15 120,40 70,65 20,40" fill="#1a4a55" stroke="#00c2a8" stroke-width="1.2"/>
    <polygon points="20,40 70,65 70,115 20,90" fill="#0c2a32" stroke="#00c2a8" stroke-width="1.2"/>
    <polygon points="70,65 120,40 120,90 70,115" fill="#144048" stroke="#00c2a8" stroke-width="1.2"/>
  </g>
  <g transform="translate(900,180)">
    <polygon points="50,10 85,28 50,46 15,28" fill="url(#t)"/>
    <polygon points="15,28 50,46 50,82 15,64" fill="#007a72"/>
    <polygon points="50,46 85,28 85,64 50,82" fill="#00a890"/>
  </g>
  <text x="64" y="130" font-family="Segoe UI, Arial, sans-serif" font-size="52" font-weight="700" fill="#F2FFFC">Muddasir Faiyaj</text>
  <text x="64" y="178" font-family="Segoe UI, Arial, sans-serif" font-size="20" fill="#00C2A8" letter-spacing="2">FULL-STACK DEVELOPER  ·  ROBOTICS SOFTWARE ENGINEER</text>
  <text x="64" y="220" font-family="Consolas, monospace" font-size="16" fill="#9BB8B3">Next.js · Node · OpenCV · Embedded · MATE ROV</text>
  <rect x="64" y="250" rx="16" ry="16" width="150" height="36" fill="#0d3d42" stroke="#00c2a8"/>
  <text x="139" y="274" text-anchor="middle" font-family="Segoe UI, Arial" font-size="14" fill="#E8F4F2">1st in Asia 26</text>
  <rect x="230" y="250" rx="16" ry="16" width="160" height="36" fill="#0d3d42" stroke="#00c2a8"/>
  <text x="310" y="274" text-anchor="middle" font-family="Segoe UI, Arial" font-size="14" fill="#E8F4F2">26th Worldwide</text>
  <rect x="408" y="250" rx="16" ry="16" width="190" height="36" fill="#0d3d42" stroke="#00c2a8"/>
  <text x="503" y="274" text-anchor="middle" font-family="Segoe UI, Arial" font-size="14" fill="#E8F4F2">muddasirfaiyaj.dev</text>
</svg>
